<mxfile host="Electron" modified="2023-12-26T16:06:17.246Z" agent="Mozilla/5.0 (Windows NT 10.0; Win64; x64) AppleWebKit/537.36 (KHTML, like Gecko) draw.io/21.6.5 Chrome/114.0.5735.243 Electron/25.3.1 Safari/537.36" etag="YUhQPCe6vxxNWs9QsQ8_" version="21.6.5" type="device">
  <diagram name="Page-1" id="8H8mLN9JJ0VSuzHyfmK6">
    <mxGraphModel dx="1430" dy="825" grid="1" gridSize="10" guides="1" tooltips="1" connect="1" arrows="1" fold="1" page="1" pageScale="1" pageWidth="827" pageHeight="1169" math="0" shadow="0">
      <root>
        <mxCell id="0" />
        <mxCell id="1" parent="0" />
        <mxCell id="SjKSlldPNFmVtI1_OQUM-1" value="User response" style="rounded=1;whiteSpace=wrap;html=1;" parent="1" vertex="1">
          <mxGeometry x="500" y="30" width="120" height="60" as="geometry" />
        </mxCell>
        <mxCell id="SjKSlldPNFmVtI1_OQUM-2" value="&lt;h1&gt;&lt;font color=&quot;#33ffff&quot;&gt;DAIA - FreeThink&lt;/font&gt;&lt;/h1&gt;&lt;div&gt;&lt;font color=&quot;#ffffff&quot;&gt;Digital Artificial Intelligence Agent&lt;/font&gt;&lt;/div&gt;&lt;div&gt;&lt;font color=&quot;#ffffff&quot;&gt;Version: FreeThink&lt;/font&gt;&lt;/div&gt;&lt;div&gt;&lt;font color=&quot;#ffffff&quot;&gt;&lt;br&gt;&lt;/font&gt;&lt;/div&gt;&lt;div&gt;&lt;font color=&quot;#ffffff&quot;&gt;Version information: This version of the DAIA is less pre-programmed with prompts that simulate thinking. Rather it has to find out how to compleate its goal by itself.&lt;/font&gt;&lt;/div&gt;" style="text;html=1;strokeColor=none;fillColor=none;spacing=5;spacingTop=-20;whiteSpace=wrap;overflow=hidden;rounded=0;" parent="1" vertex="1">
          <mxGeometry x="10" y="10" width="286" height="160" as="geometry" />
        </mxCell>
        <mxCell id="SjKSlldPNFmVtI1_OQUM-5" value="GPT response to user&#39;s response" style="rounded=1;whiteSpace=wrap;html=1;" parent="1" vertex="1">
          <mxGeometry x="660" y="120" width="120" height="60" as="geometry" />
        </mxCell>
        <mxCell id="SjKSlldPNFmVtI1_OQUM-7" value="Interpret commands in the GPT response" style="rounded=1;whiteSpace=wrap;html=1;" parent="1" vertex="1">
          <mxGeometry x="500" y="230" width="120" height="60" as="geometry" />
        </mxCell>
        <mxCell id="SjKSlldPNFmVtI1_OQUM-8" value="Run and return the command &lt;br&gt;outputs" style="rounded=1;whiteSpace=wrap;html=1;" parent="1" vertex="1">
          <mxGeometry x="340" y="120" width="120" height="60" as="geometry" />
        </mxCell>
        <mxCell id="SjKSlldPNFmVtI1_OQUM-9" value="" style="curved=1;endArrow=classic;html=1;rounded=0;exitX=1;exitY=0.5;exitDx=0;exitDy=0;entryX=0.5;entryY=0;entryDx=0;entryDy=0;" parent="1" source="SjKSlldPNFmVtI1_OQUM-1" target="SjKSlldPNFmVtI1_OQUM-5" edge="1">
          <mxGeometry width="50" height="50" relative="1" as="geometry">
            <mxPoint x="700" y="80" as="sourcePoint" />
            <mxPoint x="750" y="30" as="targetPoint" />
            <Array as="points">
              <mxPoint x="700" y="70" />
            </Array>
          </mxGeometry>
        </mxCell>
        <mxCell id="SjKSlldPNFmVtI1_OQUM-10" value="" style="curved=1;endArrow=classic;html=1;rounded=0;exitX=0;exitY=0.5;exitDx=0;exitDy=0;entryX=0.5;entryY=1;entryDx=0;entryDy=0;" parent="1" source="SjKSlldPNFmVtI1_OQUM-7" target="SjKSlldPNFmVtI1_OQUM-8" edge="1">
          <mxGeometry width="50" height="50" relative="1" as="geometry">
            <mxPoint x="350" y="210" as="sourcePoint" />
            <mxPoint x="450" y="270" as="targetPoint" />
            <Array as="points">
              <mxPoint x="410" y="250" />
            </Array>
          </mxGeometry>
        </mxCell>
        <mxCell id="SjKSlldPNFmVtI1_OQUM-11" value="" style="curved=1;endArrow=classic;html=1;rounded=0;exitX=0.5;exitY=0;exitDx=0;exitDy=0;entryX=0;entryY=0.5;entryDx=0;entryDy=0;" parent="1" source="SjKSlldPNFmVtI1_OQUM-8" target="SjKSlldPNFmVtI1_OQUM-1" edge="1">
          <mxGeometry width="50" height="50" relative="1" as="geometry">
            <mxPoint x="390" y="50" as="sourcePoint" />
            <mxPoint x="490" y="110" as="targetPoint" />
            <Array as="points">
              <mxPoint x="410" y="90" />
              <mxPoint x="450" y="60" />
            </Array>
          </mxGeometry>
        </mxCell>
        <mxCell id="SjKSlldPNFmVtI1_OQUM-12" value="" style="curved=1;endArrow=classic;html=1;rounded=0;exitX=0.5;exitY=1;exitDx=0;exitDy=0;entryX=1;entryY=0.5;entryDx=0;entryDy=0;" parent="1" source="SjKSlldPNFmVtI1_OQUM-5" target="SjKSlldPNFmVtI1_OQUM-7" edge="1">
          <mxGeometry width="50" height="50" relative="1" as="geometry">
            <mxPoint x="650" y="270" as="sourcePoint" />
            <mxPoint x="750" y="330" as="targetPoint" />
            <Array as="points">
              <mxPoint x="710" y="260" />
            </Array>
          </mxGeometry>
        </mxCell>
        <mxCell id="TkDIhOmvcp75_lIXTKRC-1" value="User included version:" style="text;html=1;strokeColor=none;fillColor=none;align=center;verticalAlign=middle;whiteSpace=wrap;rounded=0;" vertex="1" parent="1">
          <mxGeometry x="320" y="20" width="130" height="30" as="geometry" />
        </mxCell>
        <mxCell id="TkDIhOmvcp75_lIXTKRC-2" value="&lt;font style=&quot;font-size: 15px;&quot; color=&quot;#66b2ff&quot;&gt;Fully automated version:&lt;/font&gt;" style="text;html=1;strokeColor=none;fillColor=none;align=center;verticalAlign=middle;whiteSpace=wrap;rounded=0;" vertex="1" parent="1">
          <mxGeometry x="20" y="360" width="180" height="30" as="geometry" />
        </mxCell>
        <mxCell id="TkDIhOmvcp75_lIXTKRC-5" value="Interpret commands in the GPT response" style="rounded=1;whiteSpace=wrap;html=1;" vertex="1" parent="1">
          <mxGeometry x="510" y="680" width="120" height="60" as="geometry" />
        </mxCell>
        <mxCell id="TkDIhOmvcp75_lIXTKRC-6" value="Run and return the command &lt;br&gt;outputs" style="rounded=1;whiteSpace=wrap;html=1;" vertex="1" parent="1">
          <mxGeometry x="350" y="580" width="120" height="60" as="geometry" />
        </mxCell>
        <mxCell id="TkDIhOmvcp75_lIXTKRC-8" value="" style="curved=1;endArrow=classic;html=1;rounded=0;exitX=0;exitY=0.5;exitDx=0;exitDy=0;entryX=0.5;entryY=1;entryDx=0;entryDy=0;" edge="1" parent="1" source="TkDIhOmvcp75_lIXTKRC-5" target="TkDIhOmvcp75_lIXTKRC-6">
          <mxGeometry width="50" height="50" relative="1" as="geometry">
            <mxPoint x="360" y="670" as="sourcePoint" />
            <mxPoint x="460" y="730" as="targetPoint" />
            <Array as="points">
              <mxPoint x="420" y="710" />
            </Array>
          </mxGeometry>
        </mxCell>
        <mxCell id="TkDIhOmvcp75_lIXTKRC-9" value="" style="curved=1;endArrow=classic;html=1;rounded=0;exitX=0.5;exitY=0;exitDx=0;exitDy=0;entryX=0;entryY=0.5;entryDx=0;entryDy=0;" edge="1" parent="1" source="TkDIhOmvcp75_lIXTKRC-6">
          <mxGeometry width="50" height="50" relative="1" as="geometry">
            <mxPoint x="400" y="510" as="sourcePoint" />
            <mxPoint x="509.9999999999998" y="520" as="targetPoint" />
            <Array as="points">
              <mxPoint x="420" y="550" />
              <mxPoint x="460" y="520" />
            </Array>
          </mxGeometry>
        </mxCell>
        <mxCell id="TkDIhOmvcp75_lIXTKRC-10" value="" style="curved=1;endArrow=classic;html=1;rounded=0;exitX=1;exitY=0.5;exitDx=0;exitDy=0;entryX=1;entryY=0.5;entryDx=0;entryDy=0;" edge="1" parent="1" source="TkDIhOmvcp75_lIXTKRC-13" target="TkDIhOmvcp75_lIXTKRC-5">
          <mxGeometry width="50" height="50" relative="1" as="geometry">
            <mxPoint x="730" y="640.0000000000002" as="sourcePoint" />
            <mxPoint x="760" y="790" as="targetPoint" />
            <Array as="points">
              <mxPoint x="720" y="600" />
            </Array>
          </mxGeometry>
        </mxCell>
        <mxCell id="TkDIhOmvcp75_lIXTKRC-14" style="edgeStyle=orthogonalEdgeStyle;rounded=0;orthogonalLoop=1;jettySize=auto;html=1;entryX=0.5;entryY=0;entryDx=0;entryDy=0;" edge="1" parent="1" source="TkDIhOmvcp75_lIXTKRC-12" target="TkDIhOmvcp75_lIXTKRC-13">
          <mxGeometry relative="1" as="geometry" />
        </mxCell>
        <mxCell id="TkDIhOmvcp75_lIXTKRC-12" value="User goal" style="rounded=1;whiteSpace=wrap;html=1;" vertex="1" parent="1">
          <mxGeometry x="510" y="360" width="120" height="60" as="geometry" />
        </mxCell>
        <mxCell id="TkDIhOmvcp75_lIXTKRC-13" value="GPT works twords compleating the user&#39;s goal by using commands in its response" style="rounded=1;whiteSpace=wrap;html=1;" vertex="1" parent="1">
          <mxGeometry x="510" y="490" width="120" height="80" as="geometry" />
        </mxCell>
        <mxCell id="TkDIhOmvcp75_lIXTKRC-16" value="New DAIA (on a new machine or a VM) with the GPT&#39;s goal" style="rounded=1;whiteSpace=wrap;html=1;" vertex="1" parent="1">
          <mxGeometry x="240" y="440" width="120" height="60" as="geometry" />
        </mxCell>
        <mxCell id="TkDIhOmvcp75_lIXTKRC-17" value="" style="curved=1;endArrow=classic;html=1;rounded=0;exitX=0;exitY=0.5;exitDx=0;exitDy=0;entryX=1;entryY=0.5;entryDx=0;entryDy=0;" edge="1" parent="1">
          <mxGeometry width="50" height="50" relative="1" as="geometry">
            <mxPoint x="510" y="500" as="sourcePoint" />
            <mxPoint x="359.9999999999998" y="480" as="targetPoint" />
            <Array as="points" />
          </mxGeometry>
        </mxCell>
        <mxCell id="TkDIhOmvcp75_lIXTKRC-18" value="Interpret commands in the GPT response" style="rounded=1;whiteSpace=wrap;html=1;" vertex="1" parent="1">
          <mxGeometry x="180" y="740" width="120" height="60" as="geometry" />
        </mxCell>
        <mxCell id="TkDIhOmvcp75_lIXTKRC-19" value="Run and return the command &lt;br&gt;outputs" style="rounded=1;whiteSpace=wrap;html=1;" vertex="1" parent="1">
          <mxGeometry x="20" y="640" width="120" height="60" as="geometry" />
        </mxCell>
        <mxCell id="TkDIhOmvcp75_lIXTKRC-20" value="" style="curved=1;endArrow=classic;html=1;rounded=0;exitX=0;exitY=0.5;exitDx=0;exitDy=0;entryX=0.5;entryY=1;entryDx=0;entryDy=0;" edge="1" parent="1" source="TkDIhOmvcp75_lIXTKRC-18" target="TkDIhOmvcp75_lIXTKRC-19">
          <mxGeometry width="50" height="50" relative="1" as="geometry">
            <mxPoint x="30" y="730" as="sourcePoint" />
            <mxPoint x="130" y="790" as="targetPoint" />
            <Array as="points">
              <mxPoint x="90" y="770" />
            </Array>
          </mxGeometry>
        </mxCell>
        <mxCell id="TkDIhOmvcp75_lIXTKRC-21" value="" style="curved=1;endArrow=classic;html=1;rounded=0;exitX=0.5;exitY=0;exitDx=0;exitDy=0;entryX=0;entryY=0.5;entryDx=0;entryDy=0;" edge="1" parent="1" source="TkDIhOmvcp75_lIXTKRC-19">
          <mxGeometry width="50" height="50" relative="1" as="geometry">
            <mxPoint x="70" y="570" as="sourcePoint" />
            <mxPoint x="179.99999999999977" y="580" as="targetPoint" />
            <Array as="points">
              <mxPoint x="90" y="610" />
              <mxPoint x="130" y="580" />
            </Array>
          </mxGeometry>
        </mxCell>
        <mxCell id="TkDIhOmvcp75_lIXTKRC-22" value="" style="curved=1;endArrow=classic;html=1;rounded=0;exitX=1;exitY=0.5;exitDx=0;exitDy=0;entryX=1;entryY=0.5;entryDx=0;entryDy=0;" edge="1" parent="1" source="TkDIhOmvcp75_lIXTKRC-23" target="TkDIhOmvcp75_lIXTKRC-18">
          <mxGeometry width="50" height="50" relative="1" as="geometry">
            <mxPoint x="380" y="690.0000000000002" as="sourcePoint" />
            <mxPoint x="410" y="840" as="targetPoint" />
            <Array as="points">
              <mxPoint x="370" y="650" />
            </Array>
          </mxGeometry>
        </mxCell>
        <mxCell id="TkDIhOmvcp75_lIXTKRC-23" value="GPT works twords compleating the user&#39;s goal by using commands in its response" style="rounded=1;whiteSpace=wrap;html=1;" vertex="1" parent="1">
          <mxGeometry x="180" y="550" width="120" height="80" as="geometry" />
        </mxCell>
        <mxCell id="TkDIhOmvcp75_lIXTKRC-24" value="" style="curved=1;endArrow=classic;html=1;rounded=0;exitX=0.5;exitY=1;exitDx=0;exitDy=0;entryX=0.5;entryY=0;entryDx=0;entryDy=0;" edge="1" parent="1" source="TkDIhOmvcp75_lIXTKRC-16" target="TkDIhOmvcp75_lIXTKRC-23">
          <mxGeometry width="50" height="50" relative="1" as="geometry">
            <mxPoint x="270" y="495" as="sourcePoint" />
            <mxPoint x="320" y="580" as="targetPoint" />
            <Array as="points">
              <mxPoint x="270" y="540" />
            </Array>
          </mxGeometry>
        </mxCell>
        <mxCell id="TkDIhOmvcp75_lIXTKRC-32" value="&lt;font style=&quot;font-size: 8px;&quot;&gt;GPT decides to initialize a new DAIA instance&lt;/font&gt;" style="edgeLabel;html=1;align=center;verticalAlign=middle;resizable=0;points=[];rotation=-45;" vertex="1" connectable="0" parent="1">
          <mxGeometry x="429.58620689655163" y="490" as="geometry" />
        </mxCell>
        <mxCell id="TkDIhOmvcp75_lIXTKRC-33" value="" style="endArrow=classic;html=1;rounded=0;exitX=0;exitY=0;exitDx=0;exitDy=0;" edge="1" parent="1" source="TkDIhOmvcp75_lIXTKRC-23">
          <mxGeometry relative="1" as="geometry">
            <mxPoint x="70" y="420" as="sourcePoint" />
            <mxPoint x="90" y="500" as="targetPoint" />
          </mxGeometry>
        </mxCell>
        <mxCell id="TkDIhOmvcp75_lIXTKRC-34" value="&lt;font style=&quot;font-size: 9px;&quot;&gt;GPT decides to initialize a new DAIA instance&lt;/font&gt;" style="edgeLabel;resizable=0;html=1;align=center;verticalAlign=middle;rotation=-30;" connectable="0" vertex="1" parent="TkDIhOmvcp75_lIXTKRC-33">
          <mxGeometry relative="1" as="geometry" />
        </mxCell>
        <mxCell id="TkDIhOmvcp75_lIXTKRC-42" value="More DAIAs..." style="text;html=1;strokeColor=none;fillColor=none;align=center;verticalAlign=middle;whiteSpace=wrap;rounded=0;" vertex="1" parent="1">
          <mxGeometry x="30" y="480" width="60" height="30" as="geometry" />
        </mxCell>
        <mxCell id="TkDIhOmvcp75_lIXTKRC-53" style="edgeStyle=orthogonalEdgeStyle;rounded=0;orthogonalLoop=1;jettySize=auto;html=1;entryX=0.5;entryY=0;entryDx=0;entryDy=0;" edge="1" parent="1" source="TkDIhOmvcp75_lIXTKRC-44" target="TkDIhOmvcp75_lIXTKRC-46">
          <mxGeometry relative="1" as="geometry" />
        </mxCell>
        <mxCell id="TkDIhOmvcp75_lIXTKRC-44" value="User goal" style="rounded=1;whiteSpace=wrap;html=1;" vertex="1" parent="1">
          <mxGeometry x="550" y="850" width="120" height="60" as="geometry" />
        </mxCell>
        <mxCell id="TkDIhOmvcp75_lIXTKRC-45" value="&lt;font color=&quot;#66b2ff&quot;&gt;&lt;span style=&quot;font-size: 15px;&quot;&gt;DAIA tree system:&lt;br&gt;&lt;/span&gt;&lt;/font&gt;" style="text;html=1;strokeColor=none;fillColor=none;align=center;verticalAlign=middle;whiteSpace=wrap;rounded=0;" vertex="1" parent="1">
          <mxGeometry x="20" y="850" width="130" height="30" as="geometry" />
        </mxCell>
        <mxCell id="TkDIhOmvcp75_lIXTKRC-46" value="Primary DAIA" style="rounded=1;whiteSpace=wrap;html=1;" vertex="1" parent="1">
          <mxGeometry x="550" y="980" width="120" height="60" as="geometry" />
        </mxCell>
        <mxCell id="TkDIhOmvcp75_lIXTKRC-47" value="Sub-DAIA" style="rounded=1;whiteSpace=wrap;html=1;" vertex="1" parent="1">
          <mxGeometry x="380" y="930" width="120" height="60" as="geometry" />
        </mxCell>
        <mxCell id="TkDIhOmvcp75_lIXTKRC-48" value="Sub-Sub-DAIA" style="rounded=1;whiteSpace=wrap;html=1;" vertex="1" parent="1">
          <mxGeometry x="220" y="1070" width="120" height="60" as="geometry" />
        </mxCell>
        <mxCell id="TkDIhOmvcp75_lIXTKRC-49" value="Sub-Sub-DAIA" style="rounded=1;whiteSpace=wrap;html=1;" vertex="1" parent="1">
          <mxGeometry x="210" y="940" width="120" height="60" as="geometry" />
        </mxCell>
        <mxCell id="TkDIhOmvcp75_lIXTKRC-50" value="Sub-DAIA" style="rounded=1;whiteSpace=wrap;html=1;" vertex="1" parent="1">
          <mxGeometry x="380" y="1010" width="120" height="60" as="geometry" />
        </mxCell>
        <mxCell id="TkDIhOmvcp75_lIXTKRC-51" value="Sub-DAIA" style="rounded=1;whiteSpace=wrap;html=1;" vertex="1" parent="1">
          <mxGeometry x="420" y="1090" width="120" height="60" as="geometry" />
        </mxCell>
        <mxCell id="TkDIhOmvcp75_lIXTKRC-52" value="More DAIAs is possible... (Sub...Sub-DAIA)" style="text;html=1;strokeColor=none;fillColor=none;align=center;verticalAlign=middle;whiteSpace=wrap;rounded=0;" vertex="1" parent="1">
          <mxGeometry x="26" y="1010" width="160" height="35" as="geometry" />
        </mxCell>
        <mxCell id="TkDIhOmvcp75_lIXTKRC-55" value="" style="curved=1;endArrow=classic;html=1;rounded=0;exitX=0.25;exitY=1;exitDx=0;exitDy=0;entryX=1;entryY=0.5;entryDx=0;entryDy=0;" edge="1" parent="1" target="TkDIhOmvcp75_lIXTKRC-47">
          <mxGeometry width="50" height="50" relative="1" as="geometry">
            <mxPoint x="550" y="1010" as="sourcePoint" />
            <mxPoint x="470" y="1060" as="targetPoint" />
            <Array as="points" />
          </mxGeometry>
        </mxCell>
        <mxCell id="TkDIhOmvcp75_lIXTKRC-56" value="" style="curved=1;endArrow=classic;html=1;rounded=0;exitX=0;exitY=0.75;exitDx=0;exitDy=0;entryX=1;entryY=0.5;entryDx=0;entryDy=0;" edge="1" parent="1" source="TkDIhOmvcp75_lIXTKRC-46">
          <mxGeometry width="50" height="50" relative="1" as="geometry">
            <mxPoint x="550" y="1090" as="sourcePoint" />
            <mxPoint x="500" y="1040" as="targetPoint" />
            <Array as="points" />
          </mxGeometry>
        </mxCell>
        <mxCell id="TkDIhOmvcp75_lIXTKRC-57" value="" style="curved=1;endArrow=classic;html=1;rounded=0;exitX=0.5;exitY=1;exitDx=0;exitDy=0;entryX=1;entryY=0.5;entryDx=0;entryDy=0;" edge="1" parent="1" source="TkDIhOmvcp75_lIXTKRC-46" target="TkDIhOmvcp75_lIXTKRC-51">
          <mxGeometry width="50" height="50" relative="1" as="geometry">
            <mxPoint x="600" y="1150" as="sourcePoint" />
            <mxPoint x="550" y="1100" as="targetPoint" />
            <Array as="points" />
          </mxGeometry>
        </mxCell>
        <mxCell id="TkDIhOmvcp75_lIXTKRC-58" value="" style="curved=1;endArrow=classic;html=1;rounded=0;exitX=0.25;exitY=1;exitDx=0;exitDy=0;entryX=1;entryY=0.5;entryDx=0;entryDy=0;" edge="1" parent="1" target="TkDIhOmvcp75_lIXTKRC-49">
          <mxGeometry width="50" height="50" relative="1" as="geometry">
            <mxPoint x="380" y="960" as="sourcePoint" />
            <mxPoint x="330" y="910" as="targetPoint" />
            <Array as="points" />
          </mxGeometry>
        </mxCell>
        <mxCell id="TkDIhOmvcp75_lIXTKRC-59" value="" style="curved=1;endArrow=classic;html=1;rounded=0;exitX=0;exitY=0.5;exitDx=0;exitDy=0;entryX=1;entryY=0.5;entryDx=0;entryDy=0;" edge="1" parent="1" source="TkDIhOmvcp75_lIXTKRC-50" target="TkDIhOmvcp75_lIXTKRC-48">
          <mxGeometry width="50" height="50" relative="1" as="geometry">
            <mxPoint x="410" y="1120" as="sourcePoint" />
            <mxPoint x="360" y="1070" as="targetPoint" />
            <Array as="points" />
          </mxGeometry>
        </mxCell>
        <mxCell id="TkDIhOmvcp75_lIXTKRC-65" value="" style="endArrow=classic;html=1;rounded=0;entryX=0;entryY=0.25;entryDx=0;entryDy=0;" edge="1" parent="1" target="TkDIhOmvcp75_lIXTKRC-47">
          <mxGeometry relative="1" as="geometry">
            <mxPoint x="330" y="950" as="sourcePoint" />
            <mxPoint x="390" y="890" as="targetPoint" />
          </mxGeometry>
        </mxCell>
        <mxCell id="TkDIhOmvcp75_lIXTKRC-66" value="&lt;font style=&quot;font-size: 9px;&quot;&gt;Sending data back to its primary DAIA&lt;/font&gt;" style="edgeLabel;resizable=0;html=1;align=center;verticalAlign=middle;" connectable="0" vertex="1" parent="TkDIhOmvcp75_lIXTKRC-65">
          <mxGeometry relative="1" as="geometry">
            <mxPoint x="-45" y="-28" as="offset" />
          </mxGeometry>
        </mxCell>
        <mxCell id="TkDIhOmvcp75_lIXTKRC-70" value="" style="endArrow=classic;html=1;rounded=0;entryX=0;entryY=0.25;entryDx=0;entryDy=0;" edge="1" parent="1" target="TkDIhOmvcp75_lIXTKRC-50">
          <mxGeometry relative="1" as="geometry">
            <mxPoint x="289.59000000000003" y="1070" as="sourcePoint" />
            <mxPoint x="349.59000000000003" y="1010" as="targetPoint" />
          </mxGeometry>
        </mxCell>
        <mxCell id="TkDIhOmvcp75_lIXTKRC-71" value="&lt;font style=&quot;font-size: 9px;&quot;&gt;Sending data back to its primary DAIA&lt;/font&gt;" style="edgeLabel;resizable=0;html=1;align=center;verticalAlign=middle;" connectable="0" vertex="1" parent="TkDIhOmvcp75_lIXTKRC-70">
          <mxGeometry relative="1" as="geometry">
            <mxPoint x="-45" as="offset" />
          </mxGeometry>
        </mxCell>
        <mxCell id="TkDIhOmvcp75_lIXTKRC-72" value="" style="endArrow=classic;html=1;rounded=0;" edge="1" parent="1">
          <mxGeometry relative="1" as="geometry">
            <mxPoint x="500" y="950" as="sourcePoint" />
            <mxPoint x="550" y="990" as="targetPoint" />
          </mxGeometry>
        </mxCell>
        <mxCell id="TkDIhOmvcp75_lIXTKRC-73" value="&lt;font style=&quot;font-size: 6px;&quot;&gt;Sending data back to primary DAIA&lt;/font&gt;" style="edgeLabel;resizable=0;html=1;align=center;verticalAlign=middle;" connectable="0" vertex="1" parent="TkDIhOmvcp75_lIXTKRC-72">
          <mxGeometry relative="1" as="geometry">
            <mxPoint x="25" y="-20" as="offset" />
          </mxGeometry>
        </mxCell>
        <mxCell id="TkDIhOmvcp75_lIXTKRC-74" value="" style="endArrow=classic;html=1;rounded=0;entryX=0.25;entryY=1;entryDx=0;entryDy=0;" edge="1" parent="1" target="TkDIhOmvcp75_lIXTKRC-46">
          <mxGeometry relative="1" as="geometry">
            <mxPoint x="520" y="1090" as="sourcePoint" />
            <mxPoint x="580" y="1030" as="targetPoint" />
          </mxGeometry>
        </mxCell>
        <mxCell id="TkDIhOmvcp75_lIXTKRC-75" value="&lt;font style=&quot;font-size: 6px;&quot;&gt;Sending data back to primary DAIA&lt;/font&gt;" style="edgeLabel;resizable=0;html=1;align=center;verticalAlign=middle;" connectable="0" vertex="1" parent="TkDIhOmvcp75_lIXTKRC-74">
          <mxGeometry relative="1" as="geometry" />
        </mxCell>
        <mxCell id="TkDIhOmvcp75_lIXTKRC-76" value="" style="endArrow=classic;html=1;rounded=0;entryX=-0.003;entryY=0.618;entryDx=0;entryDy=0;entryPerimeter=0;exitX=1;exitY=0.25;exitDx=0;exitDy=0;" edge="1" parent="1" source="TkDIhOmvcp75_lIXTKRC-50" target="TkDIhOmvcp75_lIXTKRC-46">
          <mxGeometry relative="1" as="geometry">
            <mxPoint x="410" y="890" as="sourcePoint" />
            <mxPoint x="470" y="830" as="targetPoint" />
          </mxGeometry>
        </mxCell>
        <mxCell id="TkDIhOmvcp75_lIXTKRC-77" value="&lt;font style=&quot;font-size: 4px;&quot;&gt;Sending data back to primary DAIA&lt;/font&gt;" style="edgeLabel;resizable=0;html=1;align=center;verticalAlign=middle;" connectable="0" vertex="1" parent="TkDIhOmvcp75_lIXTKRC-76">
          <mxGeometry relative="1" as="geometry">
            <mxPoint x="-25" y="-21" as="offset" />
          </mxGeometry>
        </mxCell>
        <mxCell id="TkDIhOmvcp75_lIXTKRC-78" value="" style="curved=1;endArrow=classic;html=1;rounded=0;exitX=0.5;exitY=1;exitDx=0;exitDy=0;" edge="1" parent="1">
          <mxGeometry width="50" height="50" relative="1" as="geometry">
            <mxPoint x="740" y="180" as="sourcePoint" />
            <mxPoint x="750" y="290" as="targetPoint" />
            <Array as="points">
              <mxPoint x="750" y="230" />
            </Array>
          </mxGeometry>
        </mxCell>
        <mxCell id="TkDIhOmvcp75_lIXTKRC-79" value="Goal compleated" style="rounded=1;whiteSpace=wrap;html=1;" vertex="1" parent="1">
          <mxGeometry x="690" y="290" width="120" height="60" as="geometry" />
        </mxCell>
        <mxCell id="TkDIhOmvcp75_lIXTKRC-80" value="" style="curved=1;endArrow=classic;html=1;rounded=0;exitX=0.5;exitY=1;exitDx=0;exitDy=0;entryX=0.25;entryY=0;entryDx=0;entryDy=0;" edge="1" parent="1" target="TkDIhOmvcp75_lIXTKRC-79">
          <mxGeometry width="50" height="50" relative="1" as="geometry">
            <mxPoint x="585" y="90" as="sourcePoint" />
            <mxPoint x="595" y="200" as="targetPoint" />
            <Array as="points">
              <mxPoint x="585" y="140" />
            </Array>
          </mxGeometry>
        </mxCell>
        <mxCell id="TkDIhOmvcp75_lIXTKRC-84" value="" style="curved=1;endArrow=classic;html=1;rounded=0;exitX=1;exitY=0.25;exitDx=0;exitDy=0;" edge="1" parent="1" source="TkDIhOmvcp75_lIXTKRC-13">
          <mxGeometry width="50" height="50" relative="1" as="geometry">
            <mxPoint x="740" y="510" as="sourcePoint" />
            <mxPoint x="750" y="620" as="targetPoint" />
            <Array as="points">
              <mxPoint x="730" y="580" />
            </Array>
          </mxGeometry>
        </mxCell>
        <mxCell id="TkDIhOmvcp75_lIXTKRC-85" value="Goal compleated" style="rounded=1;whiteSpace=wrap;html=1;" vertex="1" parent="1">
          <mxGeometry x="690" y="620" width="120" height="60" as="geometry" />
        </mxCell>
        <mxCell id="TkDIhOmvcp75_lIXTKRC-86" value="" style="curved=1;endArrow=classic;html=1;rounded=0;exitX=0.75;exitY=1;exitDx=0;exitDy=0;" edge="1" parent="1" source="TkDIhOmvcp75_lIXTKRC-23">
          <mxGeometry width="50" height="50" relative="1" as="geometry">
            <mxPoint x="380" y="670" as="sourcePoint" />
            <mxPoint x="390" y="780" as="targetPoint" />
            <Array as="points">
              <mxPoint x="360" y="720" />
            </Array>
          </mxGeometry>
        </mxCell>
        <mxCell id="TkDIhOmvcp75_lIXTKRC-87" value="Goal compleated" style="rounded=1;whiteSpace=wrap;html=1;" vertex="1" parent="1">
          <mxGeometry x="330" y="780" width="120" height="60" as="geometry" />
        </mxCell>
        <mxCell id="TkDIhOmvcp75_lIXTKRC-88" value="Design by:" style="text;html=1;strokeColor=none;fillColor=none;align=center;verticalAlign=middle;whiteSpace=wrap;rounded=0;" vertex="1" parent="1">
          <mxGeometry x="700" y="1130" width="60" height="30" as="geometry" />
        </mxCell>
        <mxCell id="TkDIhOmvcp75_lIXTKRC-89" value="&lt;font color=&quot;#33ffff&quot;&gt;Code7G&lt;/font&gt;" style="text;html=1;strokeColor=none;fillColor=none;align=center;verticalAlign=middle;whiteSpace=wrap;rounded=0;" vertex="1" parent="1">
          <mxGeometry x="760" y="1130" width="60" height="30" as="geometry" />
        </mxCell>
      </root>
    </mxGraphModel>
  </diagram>
</mxfile>
